<svg width="2000" height="1125" xmlns="http://www.w3.org/2000/svg" xmlns:xlink="http://www.w3.org/1999/xlink" overflow="hidden"><defs><clipPath id="clip0"><path d="M0 0 2000 0 2000 1125 0 1125Z" fill-rule="evenodd" clip-rule="evenodd"/></clipPath></defs><g clip-path="url(#clip0)"><rect x="0" y="0" width="2000" height="1125" fill="#FFFFFF"/><path d="M1055.5 314.991C1148.81 246.354 1242.12 177.717 1317.09 182.762 1392.06 187.807 1441.24 331.984 1505.31 345.26 1569.38 358.536 1635.44 310.477 1701.5 262.418" stroke="#FFC000" stroke-width="3" stroke-miterlimit="8" fill="none" fill-rule="evenodd"/><path d="M259.453 284.191C378.994 236.951 498.536 189.712 569.01 212.334 639.485 234.955 702.513 389.583 682.302 419.923 662.09 450.263 518.481 356.049 447.741 394.373 377 432.698 153.342 624.851 257.858 649.868 362.373 674.885 854.633 540.484 1074.83 544.476 1295.03 548.469 1440.77 685.264 1579.06 673.82 1717.35 662.376 1849.52 508.281 1904.57 475.812 1959.62 443.343 1934.49 461.174 1909.36 479.006" stroke="#ED7D31" stroke-width="3" stroke-miterlimit="8" fill="none" fill-rule="evenodd"/><path d="M179 298C179 264.863 205.863 238 239 238 272.137 238 299 264.863 299 298 299 331.137 272.137 358 239 358 205.863 358 179 331.137 179 298Z" fill="#FFC000" fill-rule="evenodd" fill-opacity="0.501961"/><path d="M1664 253.5C1664 232.789 1680.79 216 1701.5 216 1722.21 216 1739 232.789 1739 253.5 1739 274.211 1722.21 291 1701.5 291 1680.79 291 1664 274.211 1664 253.5Z" fill="#FFC000" fill-rule="evenodd" fill-opacity="0.501961"/><path d="M969 266C969 232.863 995.863 206 1029 206 1062.14 206 1089 232.863 1089 266 1089 299.137 1062.14 326 1029 326 995.863 326 969 299.137 969 266Z" fill="#ED7D31" fill-rule="evenodd" fill-opacity="0.501961"/><path d="M1875 461C1875 427.311 1902.09 400 1935.5 400 1968.91 400 1996 427.311 1996 461 1996 494.689 1968.91 522 1935.5 522 1902.09 522 1875 494.689 1875 461Z" fill="#ED7D31" fill-rule="evenodd" fill-opacity="0.501961"/></g></svg>