<svg width="2000" height="1125" xmlns="http://www.w3.org/2000/svg" xmlns:xlink="http://www.w3.org/1999/xlink" overflow="hidden"><defs><clipPath id="clip0"><path d="M0 0 2000 0 2000 1125 0 1125Z" fill-rule="evenodd" clip-rule="evenodd"/></clipPath></defs><g clip-path="url(#clip0)"><rect x="0" y="0" width="2000" height="1125" fill="#FFFFFF"/><path d="M389 424.5C389 234.79 542.79 81 732.5 81 922.21 81 1076 234.79 1076 424.5 1076 614.21 922.21 768 732.5 768 542.79 768 389 614.21 389 424.5Z" stroke="#70AD47" stroke-width="6" stroke-linejoin="round" stroke-miterlimit="10" fill="none" fill-rule="evenodd"/><path d="M704 522.5C704 386.914 813.914 277 949.5 277 1085.09 277 1195 386.914 1195 522.5 1195 658.086 1085.09 768 949.5 768 813.914 768 704 658.086 704 522.5Z" stroke="#FFC000" stroke-width="6" stroke-linejoin="round" stroke-miterlimit="10" fill="none" fill-rule="evenodd"/><path d="M820 575.5C820 478.022 898.798 399 996 399 1093.2 399 1172 478.022 1172 575.5 1172 672.978 1093.2 752 996 752 898.798 752 820 672.978 820 575.5Z" stroke="#FF0000" stroke-width="6" stroke-linejoin="round" stroke-miterlimit="10" fill="none" fill-rule="evenodd"/><path d="M902 614C902 544.412 958.412 488 1028 488 1097.59 488 1154 544.412 1154 614 1154 683.588 1097.59 740 1028 740 958.412 740 902 683.588 902 614Z" stroke="#FFFF00" stroke-width="6" stroke-linejoin="round" stroke-miterlimit="10" fill="none" fill-rule="evenodd"/><path d="M1399 657.5C1399 596.473 1448.47 547 1509.5 547 1570.53 547 1620 596.473 1620 657.5 1620 718.527 1570.53 768 1509.5 768 1448.47 768 1399 718.527 1399 657.5Z" stroke="#000000" stroke-width="6" stroke-linejoin="round" stroke-miterlimit="10" fill="none" fill-rule="evenodd"/><path d="M1447 657.5C1447 622.982 1474.98 595 1509.5 595 1544.02 595 1572 622.982 1572 657.5 1572 692.018 1544.02 720 1509.5 720 1474.98 720 1447 692.018 1447 657.5Z" stroke="#70AD47" stroke-width="6" stroke-linejoin="round" stroke-miterlimit="10" fill="#FFC000" fill-rule="evenodd"/></g></svg>