<svg width="2000" height="1125" xmlns="http://www.w3.org/2000/svg" xmlns:xlink="http://www.w3.org/1999/xlink" overflow="hidden"><defs><clipPath id="clip0"><path d="M0 0 2000 0 2000 1125 0 1125Z" fill-rule="evenodd" clip-rule="evenodd"/></clipPath></defs><g clip-path="url(#clip0)"><rect x="0" y="0" width="2000" height="1125" fill="#FFFFFF"/><path d="M155 263C155 219.922 189.922 185 233 185 276.078 185 311 219.922 311 263 311 306.078 276.078 341 233 341 189.922 341 155 306.078 155 263Z" fill="#FFC000" fill-rule="evenodd" fill-opacity="0.501961"/><path d="M497 530C497 500.177 521.401 476 551.5 476 581.599 476 606 500.177 606 530 606 559.823 581.599 584 551.5 584 521.401 584 497 559.823 497 530Z" fill="#FF0000" fill-rule="evenodd" fill-opacity="0.501961"/><path d="M705 278.5C705 161.692 799.692 67 916.5 67 1033.31 67 1128 161.692 1128 278.5 1128 395.308 1033.31 490 916.5 490 799.692 490 705 395.308 705 278.5Z" fill="#FFE699" fill-rule="evenodd" fill-opacity="0.501961"/><path d="M1557 263C1557 243.67 1572.67 228 1592 228 1611.33 228 1627 243.67 1627 263 1627 282.33 1611.33 298 1592 298 1572.67 298 1557 282.33 1557 263Z" fill="#FFD966" fill-rule="evenodd" fill-opacity="0.501961"/><path d="M1430 582.5C1430 531.414 1471.19 490 1522 490 1572.81 490 1614 531.414 1614 582.5 1614 633.586 1572.81 675 1522 675 1471.19 675 1430 633.586 1430 582.5Z" fill="#BF9000" fill-rule="evenodd" fill-opacity="0.501961"/></g></svg>