<svg width="2000" height="1125" xmlns="http://www.w3.org/2000/svg" xmlns:xlink="http://www.w3.org/1999/xlink" overflow="hidden"><defs><clipPath id="clip0"><path d="M0 0 2000 0 2000 1125 0 1125Z" fill-rule="evenodd" clip-rule="evenodd"/></clipPath></defs><g clip-path="url(#clip0)"><rect x="0" y="0" width="2000" height="1125" fill="#FFFFFF"/><path d="M320.336 221.868C326.752 203.609 445.698 174.559 463.073 187.009 480.447 199.459 448.104 290.342 424.582 296.567 401.06 302.792 313.921 240.128 320.336 221.868Z" fill="#FFC000" fill-rule="evenodd" fill-opacity="0.501961"/><path d="M205.334 466.592C211.706 443.161 329.849 405.885 347.106 421.861 364.363 437.836 332.238 554.457 308.875 562.445 285.512 570.432 198.962 490.023 205.334 466.592Z" fill="#A5A5A5" fill-rule="evenodd" fill-opacity="0.501961"/><path d="M1112.36 150.778C1155.61 178.85 1177.19 320.858 1138.26 321.188 1099.33 321.517 884.252 181.425 878.773 152.755 873.295 124.085 1069.11 122.705 1112.36 150.778Z" fill="#ED7D31" fill-rule="evenodd" fill-opacity="0.501961"/><path d="M1518.74 548.12C1532.92 507.076 1795.73 441.778 1834.11 469.763 1872.5 497.748 1801.04 702.035 1749.07 716.027 1697.1 730.019 1504.57 589.164 1518.74 548.12Z" fill="#4472C4" fill-rule="evenodd" fill-opacity="0.501961"/><path d="M1642.42 251.358C1650.44 218.879 1799.12 167.207 1820.84 189.352 1842.56 211.497 1802.13 373.158 1772.73 384.23 1743.32 395.303 1634.4 283.838 1642.42 251.358Z" fill="#70AD47" fill-rule="evenodd" fill-opacity="0.501961"/></g></svg>